{
	"asset":{
		"generator":"Khronos glTF Blender I/O v4.0.44",
		"version":"2.0"
	},
	"extensionsUsed":[
		"KHR_materials_specular",
		"KHR_materials_ior"
	],
	"scene":0,
	"scenes":[
		{
			"name":"Scene",
			"nodes":[
				0,
				1,
				2,
				3
			]
		}
	],
	"nodes":[
		{
			"mesh":0,
			"name":"car-battery",
			"rotation":[
				0.7071068286895752,
				0,
				0,
				0.7071068286895752
			]
		},
		{
			"mesh":1,
			"name":"car-battery-handle",
			"rotation":[
				0.7071068286895752,
				0,
				0,
				0.7071068286895752
			]
		},
		{
			"mesh":2,
			"name":"negative-terminal",
			"scale":[
				1.1204050779342651,
				1.1204050779342651,
				1.1204050779342651
			],
			"translation":[
				-0.10538145154714584,
				0.17540135979652405,
				0.027311207726597786
			]
		},
		{
			"mesh":3,
			"name":"positive-terminal",
			"scale":[
				1.1204050779342651,
				1.1204050779342651,
				1.1204050779342651
			],
			"translation":[
				0.10453666001558304,
				0.17540135979652405,
				0.027311207726597786
			]
		}
	],
	"materials":[
		{
			"doubleSided":true,
			"extensions":{
				"KHR_materials_specular":{
					"specularFactor":0
				},
				"KHR_materials_ior":{
					"ior":1.4500000476837158
				}
			},
			"name":"Default",
			"pbrMetallicRoughness":{
				"baseColorFactor":[
					0.196090966463089,
					0.196090966463089,
					0.196090966463089,
					1
				],
				"metallicFactor":0
			}
		}
	],
	"meshes":[
		{
			"name":"car-battery",
			"primitives":[
				{
					"attributes":{
						"COLOR_0":0,
						"POSITION":1,
						"NORMAL":2,
						"TEXCOORD_0":3
					},
					"indices":4,
					"material":0
				}
			]
		},
		{
			"name":"car-battery-handle",
			"primitives":[
				{
					"attributes":{
						"POSITION":5,
						"NORMAL":6,
						"TEXCOORD_0":7
					},
					"indices":8,
					"material":0
				}
			]
		},
		{
			"name":"negative-terminal",
			"primitives":[
				{
					"attributes":{
						"POSITION":9,
						"NORMAL":10,
						"TEXCOORD_0":11
					},
					"indices":12
				}
			]
		},
		{
			"name":"positiive-terminal",
			"primitives":[
				{
					"attributes":{
						"POSITION":13,
						"NORMAL":14,
						"TEXCOORD_0":15
					},
					"indices":12
				}
			]
		}
	],
	"accessors":[
		{
			"bufferView":0,
			"componentType":5123,
			"count":29513,
			"normalized":true,
			"type":"VEC4"
		},
		{
			"bufferView":1,
			"componentType":5126,
			"count":29513,
			"max":[
				0.1422169953584671,
				0.08602199703454971,
				3.199999991920777e-05
			],
			"min":[
				-0.1422169953584671,
				-0.08985500037670135,
				-0.19008000195026398
			],
			"type":"VEC3"
		},
		{
			"bufferView":2,
			"componentType":5126,
			"count":29513,
			"type":"VEC3"
		},
		{
			"bufferView":3,
			"componentType":5126,
			"count":29513,
			"type":"VEC2"
		},
		{
			"bufferView":4,
			"componentType":5123,
			"count":110388,
			"type":"SCALAR"
		},
		{
			"bufferView":5,
			"componentType":5126,
			"count":3710,
			"max":[
				0.048500001430511475,
				0.05465500056743622,
				-0.1733900010585785
			],
			"min":[
				-0.048500001430511475,
				4.199990144115873e-05,
				-0.18696099519729614
			],
			"type":"VEC3"
		},
		{
			"bufferView":6,
			"componentType":5126,
			"count":3710,
			"type":"VEC3"
		},
		{
			"bufferView":7,
			"componentType":5126,
			"count":3710,
			"type":"VEC2"
		},
		{
			"bufferView":8,
			"componentType":5123,
			"count":12708,
			"type":"SCALAR"
		},
		{
			"bufferView":9,
			"componentType":5126,
			"count":48,
			"max":[
				0.009999999776482582,
				0.015000040642917156,
				0.009999999776482582
			],
			"min":[
				-0.009999999776482582,
				-0.015000040642917156,
				-0.009999999776482582
			],
			"type":"VEC3"
		},
		{
			"bufferView":10,
			"componentType":5126,
			"count":48,
			"type":"VEC3"
		},
		{
			"bufferView":11,
			"componentType":5126,
			"count":48,
			"type":"VEC2"
		},
		{
			"bufferView":12,
			"componentType":5123,
			"count":84,
			"type":"SCALAR"
		},
		{
			"bufferView":13,
			"componentType":5126,
			"count":48,
			"max":[
				0.009999999776482582,
				0.015000040642917156,
				0.009999999776482582
			],
			"min":[
				-0.009999999776482582,
				-0.015000040642917156,
				-0.009999999776482582
			],
			"type":"VEC3"
		},
		{
			"bufferView":14,
			"componentType":5126,
			"count":48,
			"type":"VEC3"
		},
		{
			"bufferView":15,
			"componentType":5126,
			"count":48,
			"type":"VEC2"
		}
	],
	"bufferViews":[
		{
			"buffer":0,
			"byteLength":236104,
			"byteOffset":0,
			"target":34962
		},
		{
			"buffer":0,
			"byteLength":354156,
			"byteOffset":236104,
			"target":34962
		},
		{
			"buffer":0,
			"byteLength":354156,
			"byteOffset":590260,
			"target":34962
		},
		{
			"buffer":0,
			"byteLength":236104,
			"byteOffset":944416,
			"target":34962
		},
		{
			"buffer":0,
			"byteLength":220776,
			"byteOffset":1180520,
			"target":34963
		},
		{
			"buffer":0,
			"byteLength":44520,
			"byteOffset":1401296,
			"target":34962
		},
		{
			"buffer":0,
			"byteLength":44520,
			"byteOffset":1445816,
			"target":34962
		},
		{
			"buffer":0,
			"byteLength":29680,
			"byteOffset":1490336,
			"target":34962
		},
		{
			"buffer":0,
			"byteLength":25416,
			"byteOffset":1520016,
			"target":34963
		},
		{
			"buffer":0,
			"byteLength":576,
			"byteOffset":1545432,
			"target":34962
		},
		{
			"buffer":0,
			"byteLength":576,
			"byteOffset":1546008,
			"target":34962
		},
		{
			"buffer":0,
			"byteLength":384,
			"byteOffset":1546584,
			"target":34962
		},
		{
			"buffer":0,
			"byteLength":168,
			"byteOffset":1546968,
			"target":34963
		},
		{
			"buffer":0,
			"byteLength":576,
			"byteOffset":1547136,
			"target":34962
		},
		{
			"buffer":0,
			"byteLength":576,
			"byteOffset":1547712,
			"target":34962
		},
		{
			"buffer":0,
			"byteLength":384,
			"byteOffset":1548288,
			"target":34962
		}
	],
	"buffers":[
		{
			"byteLength":1548672,
			"uri":"battery.bin"
		}
	]
}
